<svg width="108" height="100" viewBox="0 0 108 100" fill="none" xmlns="http://www.w3.org/2000/svg">
<g clip-path="url(#clip0_7_40)">
<path d="M105.575 31.0038C103.959 25.2143 100.926 19.8321 96.4811 14.8572C90.9391 8.70643 83.6921 4.47715 74.7421 2.17132C69.4869 0.814727 62.9057 0.0922332 54.9949 0H0V100H17.2938V19.5534H57.8563C67.2066 19.5534 74.6613 21.867 80.2226 26.4959C85.7819 31.1249 88.5626 38.2921 88.5626 47.9958C88.5626 58.5931 85.7819 66.0851 80.2226 70.47C74.6633 74.8549 66.7235 77.0474 56.4035 77.0474H36.6273V99.9981H54.9968C74.2803 99.9981 88.5414 93.78 97.7819 81.342C104.594 72.1148 108.002 60.8528 108.002 47.5558C108.002 42.3101 107.192 36.7914 105.577 31.0019L105.575 31.0038Z" fill="white"/>
<path d="M69.2906 48.1188C69.2906 43.4495 68.0167 40.1195 65.4689 38.1307C62.9192 36.142 59.3496 35.1466 54.7601 35.1466H36.6273V61.581H54.7601C59.3496 61.581 62.9307 60.505 65.5016 58.3529C68.0282 56.2008 69.2925 52.7901 69.2925 48.1207L69.2906 48.1188Z" fill="white"/>
</g>
<defs>
<clipPath id="clip0_7_40">
<rect width="108" height="100" fill="white"/>
</clipPath>
</defs>
</svg>
