<svg width="34" height="42" viewBox="0 0 34 42" fill="none" xmlns="http://www.w3.org/2000/svg">
<g clip-path="url(#clip0_5_29)">
<path d="M24.4199 37.3606C24.4199 34.9181 24.4199 32.5151 24.4199 30.1122C24.4199 29.1526 24.2935 28.2168 23.9539 27.3206C23.7012 26.6465 23.3458 26.0517 22.7692 25.5125C23.5985 25.3618 24.3725 25.2428 25.1465 25.0842C26.3153 24.8463 27.4368 24.4736 28.503 23.9343C30.5485 22.9033 32.0807 21.3648 32.9179 19.2156C34.0868 16.2258 34.379 13.1567 33.4865 10.0321C33.1548 8.85838 32.5546 7.80363 31.7648 6.87576C31.5832 6.66956 31.5595 6.50302 31.6463 6.23338C32.3097 4.20317 32.0175 2.22847 31.2909 0.277568C31.2041 0.0396526 31.0382 0.0237915 30.8408 0.015861C29.9404 0 29.0954 0.237915 28.2661 0.547205C27.0419 0.999245 25.8967 1.61782 24.7989 2.31571C24.5541 2.47432 24.3488 2.5219 24.0487 2.4426C20.6684 1.55438 17.2408 1.53852 13.8368 2.21261C12.6363 2.45053 11.6649 2.39502 10.6145 1.6892C9.34297 0.856496 7.91347 0.293429 6.3734 0.0713746C6.12067 0.0317221 5.93112 0.00793051 5.78106 0L5.31509 0.166541C5.19663 0.30929 5.11765 0.547205 4.99128 0.935801C4.43054 2.73603 4.39895 4.55211 4.88861 6.3682C4.95969 6.63784 4.9281 6.81231 4.74645 7.0185C3.25377 8.78701 2.55876 10.8489 2.52717 13.1488C2.50348 14.9807 2.67723 16.7889 3.25377 18.5336C4.40685 22.023 6.91045 24.0215 10.346 24.9811C11.428 25.2825 12.5258 25.4807 13.7341 25.6156C13.4024 25.9804 13.1102 26.2976 12.897 26.6703C12.5653 27.2492 12.3599 27.8758 12.2809 28.534C12.2494 28.8036 12.1388 28.9226 11.9097 29.0177C9.08234 30.1756 6.58664 29.3746 4.9439 26.7972C4.16991 25.5759 3.11161 24.7432 1.67421 24.4498C1.22404 24.3625 0.78176 24.3467 0.347381 24.5053C-0.0317126 24.648 -0.102793 24.886 0.142039 25.2111C0.31579 25.449 0.536929 25.6394 0.789658 25.79C2.21126 26.6624 3.10371 27.963 3.72764 29.4539C4.69117 31.7458 6.46027 32.8165 8.83751 33.0068C9.91161 33.094 10.9857 32.983 12.0598 32.7372C12.0598 34.2281 12.0361 35.8776 12.0361 37.3448C12.0361 37.3448 12.1072 41.9762 18.1806 41.9762C24.254 41.9762 24.4199 37.3448 24.4199 37.3448V37.3606Z" fill="white"/>
</g>
<defs>
<clipPath id="clip0_5_29">
<rect width="34" height="42" fill="white"/>
</clipPath>
</defs>
</svg>
