<svg width="30" height="30" viewBox="0 0 30 30" fill="none" xmlns="http://www.w3.org/2000/svg">
<g clip-path="url(#clip0_4_10)">
<path d="M6.79003 10.0042H0.59314V30H6.79003V10.0042Z" fill="white"/>
<path d="M3.66008 7.38015C5.67943 7.38015 7.32015 5.7275 7.32015 3.68377C7.32015 1.64003 5.69205 0 3.66008 0C1.6281 0 0 1.65265 0 3.69638C0 5.74012 1.64072 7.39277 3.66008 7.39277V7.38015Z" fill="white"/>
<path d="M16.6849 19.5038C16.6849 16.6905 17.9848 15.0126 20.4585 15.0126C22.7303 15.0126 23.8283 16.6148 23.8283 19.5038V30H29.9874V17.3339C29.9874 11.9722 26.9457 9.38604 22.7051 9.38604C18.4644 9.38604 16.6723 12.6913 16.6723 12.6913V9.99159H10.7278V29.9874H16.6723V19.4912L16.6849 19.5038Z" fill="white"/>
</g>
<defs>
<clipPath id="clip0_4_10">
<rect width="30" height="30" fill="white"/>
</clipPath>
</defs>
</svg>
